<svg width="30" height="22" viewBox="0 0 30 22" fill="none" xmlns="http://www.w3.org/2000/svg">
<path d="M21.0561 5.40283L25.2119 9.91455C25.4605 10.1638 25.5848 10.5032 25.5848 10.8771C25.5848 11.2509 25.4605 11.586 25.2119 11.8396L21.0561 16.3685C20.563 16.9056 19.7592 16.9056 19.2661 16.3685C18.773 15.8313 18.773 14.9634 19.2661 14.4263L21.2632 12.2606H12.272C11.5676 12.2606 11 11.6462 11 10.8856C11 10.1251 11.5676 9.51064 12.2679 9.51064H21.2591L19.262 7.34502C18.7689 6.80791 18.7689 5.93994 19.262 5.40283C19.7592 4.86572 20.5589 4.86572 21.0561 5.40283Z" fill="#4B5563"/>
</svg>
